<?xml version="1.0" encoding="iso-8859-1"?>
<!-- Generator: Adobe Illustrator 19.0.0, SVG Export Plug-In . SVG Version: 6.00 Build 0)  -->
<svg version="1.1" id="Capa_1" xmlns="http://www.w3.org/2000/svg" xmlns:xlink="http://www.w3.org/1999/xlink" x="0px" y="0px"
	 viewBox="0 0 512 512" style="enable-background:new 0 0 512 512;" xml:space="preserve">
<path style="fill:#06AAE9;" d="M192,128C88.32,128,4.267,212.045,4.267,315.725s84.045,187.742,187.725,187.742
	c49.792,0,97.545-19.78,132.753-54.989L192,315.733V128z"/>
<path style="fill:#ED1C24;" d="M358.878,123.255c-35.166-35.268-82.935-55.057-132.745-54.989V256L358.878,123.255z"/>
<path style="fill:#F8CF26;" d="M367.411,169.702L234.667,302.455L367.411,435.2C440.73,361.89,440.73,243.021,367.411,169.702z"/>
<g>
	<path style="fill:#29485A;" d="M285.013,131.814l-15.275-7.629L329.472,4.719c1.442-2.876,4.378-4.702,7.595-4.719h68.267v17.067
		H342.34L285.013,131.814z"/>
	<path style="fill:#29485A;" d="M413.867,460.8h93.867v17.067h-93.867V460.8z"/>
	<path style="fill:#29485A;" d="M413.867,494.933h93.867V512h-93.867V494.933z"/>
	<path style="fill:#29485A;" d="M465.067,435.2H448v-79.036l-104.909-32.273l5.018-16.316l110.933,34.133
		c3.584,1.101,6.025,4.412,6.025,8.158L465.067,435.2z"/>
	<path style="fill:#29485A;" d="M4.267,8.533H115.2V25.6H4.267V8.533z"/>
	<path style="fill:#29485A;" d="M4.267,42.667H115.2v17.067H4.267V42.667z"/>
	<path style="fill:#29485A;" d="M4.267,76.8H64v17.067H4.267V76.8z"/>
	<path style="fill:#29485A;" d="M91.529,278.468l-76.8-93.867c-1.246-1.527-1.929-3.43-1.929-5.402v-59.733h17.067v56.687
		l74.871,91.511L91.529,278.468z"/>
	<path style="fill:#29485A;" d="M430.933,0h76.8v17.067h-76.8V0z"/>
	<path style="fill:#29485A;" d="M430.933,34.133h76.8V51.2h-76.8V34.133z"/>
	<path style="fill:#29485A;" d="M430.933,68.267H473.6v17.067h-42.667V68.267z"/>
</g>
<g>
</g>
<g>
</g>
<g>
</g>
<g>
</g>
<g>
</g>
<g>
</g>
<g>
</g>
<g>
</g>
<g>
</g>
<g>
</g>
<g>
</g>
<g>
</g>
<g>
</g>
<g>
</g>
<g>
</g>
</svg>
